<svg version="1.1" id="Layer_1" xmlns="http://www.w3.org/2000/svg" xmlns:xlink="http://www.w3.org/1999/xlink" x="0px" y="0px"
	 width="100%" viewBox="0 0 108 114" enable-background="new 0 0 108 114" xml:space="preserve">
<path fill="#000000" opacity="1.000000" stroke="none" 
	d="
M1.000001,63.000000 
	C1.000000,42.353989 1.000000,21.707977 1.000000,1.030983 
	C36.943340,1.030983 72.886719,1.030983 108.915047,1.030983 
	C108.915047,38.905216 108.915047,76.810684 108.915047,114.858078 
	C73.000366,114.858078 37.000271,114.858078 1.000000,114.858078 
	C1.000000,99.907295 1.000000,84.922310 1.365280,69.512840 
	C4.899927,65.836105 8.069295,62.583855 11.249456,59.255726 
	C11.260249,59.179852 11.111105,59.140442 11.438199,59.194946 
	C11.925096,58.849796 12.084898,58.450146 12.585971,58.025677 
	C15.079229,55.985542 17.231216,53.970222 19.566584,51.877167 
	C19.749964,51.799431 19.924185,51.441196 20.175154,51.276955 
	C21.820971,49.747936 23.160572,48.320557 24.621759,47.030945 
	C28.038445,44.015446 31.513472,41.066055 34.974918,38.483643 
	C34.961857,40.983746 35.048992,43.098972 34.880390,45.193619 
	C34.748028,46.838043 34.299561,48.457027 33.706783,50.136330 
	C33.259060,50.721512 33.096073,51.257668 32.607124,51.842762 
	C31.573721,52.593765 30.866274,53.295837 30.084515,54.200211 
	C30.010201,54.402519 29.914875,54.822895 29.582165,54.862236 
	C28.532721,55.611080 27.815987,56.320580 26.944929,57.342178 
	C25.173195,59.387249 23.555784,61.120228 21.629099,63.019810 
	C16.853985,67.792259 12.388149,72.398109 7.536446,77.185204 
	C7.443838,82.191269 7.737097,87.016090 8.338564,91.892189 
	C9.617709,90.825867 9.205886,88.044312 12.002411,89.092422 
	C11.986991,89.042755 11.888011,89.074753 11.994304,89.304062 
	C12.456964,89.374451 12.813331,89.215523 13.440237,88.932343 
	C14.489854,87.923225 15.268934,87.038345 16.318462,86.014694 
	C17.109211,85.265106 17.629509,84.654282 18.404652,83.936890 
	C19.119822,83.268822 19.580147,82.707306 20.312223,82.013687 
	C21.092630,81.272461 21.601284,80.663338 22.074879,80.048615 
	C22.039818,80.043007 22.069595,80.107468 22.351261,79.968384 
	C23.466173,78.898285 24.299421,77.967278 25.410648,76.915863 
	C26.496336,75.906303 27.304041,75.017128 28.365896,74.009964 
	C29.090879,73.320282 29.561714,72.748589 30.315552,72.024170 
	C31.451221,70.923492 32.303886,69.975525 33.468674,68.868866 
	C35.259605,67.114059 36.738411,65.517937 38.238804,63.894966 
	C38.260387,63.868122 38.235279,63.738998 38.540291,63.645737 
	C39.389496,62.910206 39.933697,62.267944 40.496140,61.574738 
	C40.514381,61.523792 40.415207,61.480469 40.692154,61.409668 
	C41.258572,60.893890 41.548046,60.448914 41.958862,59.742775 
	C42.388599,59.262344 42.696995,59.043076 43.312775,58.796543 
	C44.448124,57.866795 45.276081,56.964306 46.069164,56.048073 
	C46.034290,56.034328 46.064175,56.103085 46.366722,55.957642 
	C54.084042,48.448734 61.498810,41.085274 69.281433,33.356506 
	C69.529060,35.903664 69.682953,37.486683 69.893585,39.479683 
	C69.467072,42.326157 68.983810,44.762646 68.341583,47.332130 
	C68.182610,47.465118 68.257393,47.872845 68.106033,48.130836 
	C64.257675,52.240307 60.560680,56.091785 56.602798,60.057083 
	C55.887169,60.504295 55.432423,60.837688 54.746078,61.173515 
	C54.181198,61.348103 54.076443,61.611229 54.127762,62.205482 
	C54.027290,62.610481 53.999283,62.775345 53.727684,63.033012 
	C53.284927,63.403946 53.085762,63.682072 52.662323,63.993454 
	C52.438049,64.026711 52.005104,64.161507 51.680420,64.209846 
	C50.524906,65.484810 49.694077,66.711441 48.559574,68.092163 
	C37.402958,78.757515 26.550014,89.268768 15.000723,100.454445 
	C24.251848,102.333710 32.248154,104.388611 37.927544,95.642197 
	C38.369652,94.961327 39.108612,94.477066 39.689720,93.882019 
	C45.823135,87.601524 51.952507,81.317085 58.383129,74.885376 
	C62.147934,71.201324 65.612602,67.665627 69.427155,64.356247 
	C69.507202,69.334389 69.237366,74.086227 68.609970,78.892776 
	C63.132484,84.275192 58.012562,89.602898 52.927074,94.937912 
	C52.961510,94.945213 52.940788,94.877937 52.598755,94.925545 
	C51.789589,95.638504 51.322456,96.303856 50.560841,97.120789 
	C47.668343,99.720779 45.070328,102.169182 42.346619,104.736046 
	C46.098579,107.264397 48.492374,106.784447 51.408348,104.566460 
	C53.839603,102.717163 57.202534,101.193901 60.189213,101.125977 
	C74.751472,100.794785 89.325935,101.000664 104.065605,101.237457 
	C104.456985,100.642662 104.678841,99.826927 104.874603,98.653076 
	C104.896355,97.819618 104.944191,97.344261 105.414848,96.749847 
	C105.835159,74.756630 105.832657,52.882481 105.905006,30.596138 
	C105.989807,23.785183 106.067474,17.385424 105.973633,10.988183 
	C105.939957,8.692327 105.492821,6.402536 105.123154,3.909228 
	C104.673721,3.839997 104.335503,3.971515 103.599045,4.098771 
	C102.140785,4.050414 101.080765,4.006320 99.875458,3.687553 
	C99.134773,3.318107 98.539375,3.223331 97.480057,3.068915 
	C71.037369,3.047761 45.058609,3.086246 18.819908,3.141521 
	C18.382599,3.443356 18.205227,3.728401 17.765015,4.043067 
	C17.327038,4.052195 17.151897,4.031704 16.914341,3.800167 
	C16.574842,3.729353 16.297764,3.869586 15.602385,4.047299 
	C13.789165,4.154290 12.394244,4.223801 10.672613,4.223407 
	C9.901852,4.172216 9.457801,4.190930 8.771381,4.198322 
	C8.184746,4.356065 8.055486,4.627515 8.082227,5.466280 
	C8.009235,17.676407 8.093010,29.422941 7.932319,41.166130 
	C7.869558,45.752617 7.257248,50.331585 6.600212,55.107399 
	C4.536790,57.867218 2.768397,60.433609 1.000001,63.000000 
z"/>
<path fill="#9B566A" opacity="1.000000" stroke="none" 
	d="
M11.238663,59.331600 
	C8.069295,62.583855 4.899927,65.836105 1.365280,69.044182 
	C1.000000,67.285645 1.000000,65.571281 1.000001,63.428467 
	C2.768397,60.433609 4.536790,57.867218 6.814781,55.400101 
	C8.629140,56.776787 9.933901,58.054195 11.238663,59.331600 
z"/>
<path fill="#A53A60" opacity="1.000000" stroke="none" 
	d="
M16.976759,4.011213 
	C17.151897,4.031704 17.327038,4.052195 18.043011,4.030447 
	C18.768148,3.966342 18.952450,3.944477 19.105165,3.931365 
	C19.073582,3.940118 19.104183,3.881714 19.426968,4.132401 
	C20.709997,4.586421 21.669994,4.965964 22.630526,4.967330 
	C47.009014,5.002010 71.387604,5.014384 95.765991,4.954712 
	C97.185051,4.951239 98.602531,4.307826 100.020752,3.962224 
	C101.080765,4.006320 102.140785,4.050414 103.580215,4.559682 
	C103.972008,33.274246 103.965698,61.523685 104.034576,89.772942 
	C104.039719,91.880249 104.583443,93.986252 104.948471,96.280502 
	C105.020164,96.468147 104.992027,96.868904 104.992027,96.868904 
	C104.944191,97.344261 104.896355,97.819618 104.679718,98.862175 
	C104.305962,99.958420 104.101021,100.487465 103.896080,101.016510 
	C89.325935,101.000664 74.751472,100.794785 60.189213,101.125977 
	C57.202534,101.193901 53.839603,102.717163 51.408348,104.566460 
	C48.492374,106.784447 46.098579,107.264397 42.346619,104.736046 
	C45.070328,102.169182 47.668343,99.720779 50.866859,97.031563 
	C51.958508,96.153145 52.449646,95.515541 52.940788,94.877937 
	C52.940788,94.877937 52.961510,94.945213 53.297382,94.916046 
	C61.109390,91.796700 66.574829,86.785347 68.967522,78.838058 
	C69.237366,74.086227 69.507202,69.334389 69.434250,63.982655 
	C69.059662,61.257641 69.027855,59.132526 69.120026,56.754608 
	C69.496971,55.999275 69.749954,55.496742 70.090355,54.882568 
	C70.290657,54.485451 70.232964,54.231678 69.850723,53.818077 
	C69.475777,53.381840 69.231026,53.163826 69.017242,52.646843 
	C68.800453,50.838394 68.528923,49.355621 68.257393,47.872845 
	C68.257393,47.872845 68.182610,47.465118 68.699158,47.414497 
	C72.874367,45.236084 72.171906,42.177555 71.000328,38.639683 
	C71.007645,37.504223 71.011459,36.747246 71.200844,35.735733 
	C71.256210,34.322742 71.126007,33.164288 70.718712,31.903652 
	C68.162666,32.635735 65.533669,33.004772 63.677711,34.401222 
	C59.829964,37.296322 55.922935,40.356735 52.922153,44.063160 
	C50.054302,47.605385 48.305092,52.053280 46.064175,56.103085 
	C46.064175,56.103085 46.034290,56.034328 45.730202,56.059364 
	C44.614075,56.717453 43.802040,57.350502 42.546471,57.987556 
	C39.735115,57.997551 37.367283,58.003536 34.862282,57.702354 
	C34.136059,55.944988 33.547012,54.494785 32.956261,52.731804 
	C32.947403,52.210625 32.940247,52.002228 32.933086,51.793827 
	C33.096073,51.257668 33.259060,50.721512 33.847168,50.382530 
	C35.264259,50.506992 37.123428,50.442642 37.124222,50.360355 
	C37.171978,45.415607 37.074558,40.469170 36.939960,35.524281 
	C36.935844,35.372948 36.394768,35.236233 35.965240,34.785583 
	C34.836639,34.179600 33.313515,33.314632 32.938278,33.668137 
	C28.446690,37.899525 23.994940,42.194580 19.876873,46.781891 
	C19.111862,47.634079 19.869358,49.853035 19.924185,51.441196 
	C19.924185,51.441196 19.749964,51.799431 19.241982,51.613663 
	C17.373272,50.482841 16.123869,48.996353 14.631900,48.689587 
	C9.148164,47.562054 8.547461,43.758533 9.027949,39.294815 
	C9.606368,33.921352 10.631530,28.579756 10.918115,23.195347 
	C11.252597,16.911030 10.998210,10.595371 10.999325,4.293311 
	C12.394244,4.223801 13.789165,4.154290 15.841370,4.059347 
	C16.498655,4.033914 16.976759,4.011213 16.976759,4.011213 
z"/>
<path fill="#9C4663" opacity="1.000000" stroke="none" 
	d="
M53.971279,62.940208 
	C53.999283,62.775345 54.027290,62.610481 54.271149,62.087147 
	C54.670074,61.559986 54.833633,61.374123 54.977673,61.171082 
	C55.432423,60.837688 55.887169,60.504295 56.939522,59.993401 
	C59.349060,58.548649 61.160992,57.281395 62.834053,56.330334 
	C62.280426,61.221977 57.796902,61.791965 55.271835,64.300438 
	C48.647060,70.881653 42.250957,77.694023 35.802368,84.451157 
	C32.995796,87.392021 30.235312,90.380722 27.559296,93.439896 
	C26.783859,94.326355 26.373758,95.532410 25.796177,96.591949 
	C26.971088,97.039711 28.551487,98.193649 29.241726,97.797318 
	C31.017786,96.777512 32.571167,95.209381 33.877750,93.589523 
	C34.732956,92.529282 34.759563,90.032745 35.572792,89.827728 
	C42.243721,88.146095 44.121380,81.142357 49.254642,77.574936 
	C51.660908,75.902672 53.149097,74.479691 56.352280,74.997009 
	C57.160004,75.012901 57.621498,75.023315 58.082996,75.033730 
	C51.952507,81.317085 45.823135,87.601524 39.689720,93.882019 
	C39.108612,94.477066 38.369652,94.961327 37.927544,95.642197 
	C32.248154,104.388611 24.251848,102.333710 15.000723,100.454445 
	C26.550014,89.268768 37.402958,78.757515 48.897118,68.028625 
	C50.360588,66.594498 51.182846,65.377998 52.005104,64.161507 
	C52.005104,64.161507 52.438049,64.026711 52.866730,63.849911 
	C53.555508,63.460911 53.780796,63.216610 53.971279,62.940208 
z"/>
<path fill="#A04362" opacity="1.000000" stroke="none" 
	d="
M20.040472,82.145798 
	C19.580147,82.707306 19.119822,83.268822 18.095469,84.024460 
	C17.036964,84.863548 16.542488,85.508507 16.048012,86.153473 
	C15.268934,87.038345 14.489854,87.923225 13.119574,88.927238 
	C12.314919,89.055840 12.101464,89.065300 11.888011,89.074753 
	C11.888011,89.074753 11.986991,89.042755 11.756802,88.863861 
	C10.410221,87.126869 9.293828,85.568764 8.112478,83.576866 
	C8.005786,81.096703 7.964050,79.050323 7.922314,77.003952 
	C12.388149,72.398109 16.853985,67.792259 21.701309,63.314346 
	C22.385674,63.959877 22.688551,64.477486 22.904442,65.330917 
	C22.182190,66.395500 21.334955,67.029221 20.956656,67.873154 
	C20.214291,69.529274 19.732954,71.302391 19.143604,73.027100 
	C21.148653,72.952911 23.164248,72.973129 25.152775,72.751030 
	C25.809408,72.677681 26.396187,71.978951 27.339703,71.349472 
	C27.684511,72.590393 27.898129,73.359177 28.111746,74.127960 
	C27.304041,75.017128 26.496336,75.906303 25.050285,76.945198 
	C23.631159,78.099106 22.850376,79.103287 22.069595,80.107468 
	C22.069595,80.107468 22.039818,80.043007 21.768028,80.134033 
	C21.010983,80.865303 20.525728,81.505554 20.040472,82.145798 
z"/>
<path fill="#A14465" opacity="1.000000" stroke="none" 
	d="
M10.672613,4.223407 
	C10.998210,10.595371 11.252597,16.911030 10.918115,23.195347 
	C10.631530,28.579756 9.606368,33.921352 9.027949,39.294815 
	C8.547461,43.758533 9.148164,47.562054 14.631900,48.689587 
	C16.123869,48.996353 17.373272,50.482841 19.058601,51.691399 
	C17.231216,53.970222 15.079229,55.985542 12.381613,58.188080 
	C11.594358,58.630344 11.352733,58.885395 11.111105,59.140442 
	C11.111105,59.140442 11.260249,59.179852 11.249455,59.255726 
	C9.933901,58.054195 8.629140,56.776787 7.109809,55.206676 
	C7.257248,50.331585 7.869558,45.752617 7.932319,41.166130 
	C8.093010,29.422941 8.009235,17.676407 8.244770,5.354018 
	C8.677722,4.615685 8.860199,4.426624 9.013750,4.209644 
	C9.457801,4.190930 9.901852,4.172216 10.672613,4.223407 
z"/>
<path fill="#A53A60" opacity="1.000000" stroke="none" 
	d="
M28.365896,74.009964 
	C27.898129,73.359177 27.684511,72.590393 27.339703,71.349472 
	C26.396187,71.978951 25.809408,72.677681 25.152775,72.751030 
	C23.164248,72.973129 21.148653,72.952911 19.143604,73.027100 
	C19.732954,71.302391 20.214291,69.529274 20.956656,67.873154 
	C21.334955,67.029221 22.182190,66.395500 23.176727,65.247665 
	C25.021755,64.984100 26.507509,65.139626 27.977606,65.293510 
	C28.354549,62.968460 28.676805,60.980728 29.331560,58.992325 
	C30.107334,58.987999 30.550611,58.984341 31.370499,58.983551 
	C32.500576,58.990250 33.254044,58.994076 34.096596,59.294872 
	C35.529530,61.035164 36.873375,62.478489 38.217220,63.921810 
	C36.738411,65.517937 35.259605,67.114059 33.078072,68.859039 
	C31.596121,69.017532 30.816893,69.027176 29.941738,69.140228 
	C29.721434,69.523453 29.769497,69.777992 29.990170,70.368713 
	C30.004406,71.212402 30.018476,71.694649 30.032547,72.176888 
	C29.561714,72.748589 29.090879,73.320282 28.365896,74.009964 
M32.475391,66.501297 
	C32.475391,66.501297 32.513615,66.487770 32.475391,66.501297 
z"/>
<path fill="#A24869" opacity="1.000000" stroke="none" 
	d="
M71.015274,35.990265 
	C71.011459,36.747246 71.007645,37.504223 70.710289,38.651070 
	C70.223442,39.050526 70.030144,39.060116 69.836853,39.069702 
	C69.682953,37.486683 69.529060,35.903664 69.281433,33.356506 
	C61.498810,41.085274 54.084042,48.448734 46.366722,55.957642 
	C48.305092,52.053280 50.054302,47.605385 52.922153,44.063160 
	C55.922935,40.356735 59.829964,37.296322 63.677711,34.401222 
	C65.533669,33.004772 68.162666,32.635735 70.717316,32.302189 
	C71.000435,33.865356 71.007851,34.927811 71.015274,35.990265 
z"/>
<path fill="#A14265" opacity="1.000000" stroke="none" 
	d="
M58.383129,74.885376 
	C57.621498,75.023315 57.160004,75.012901 56.289089,74.659691 
	C55.879673,72.584824 55.879673,70.852745 55.879673,69.120674 
	C56.372028,69.460709 56.864380,69.800743 57.356735,70.140778 
	C58.715023,69.223747 61.266830,68.267487 61.238178,67.396042 
	C61.050102,61.675396 65.327461,59.632404 68.996048,57.007416 
	C69.027855,59.132526 69.059662,61.257641 69.084373,63.756344 
	C65.612602,67.665627 62.147934,71.201324 58.383129,74.885376 
z"/>
<path fill="#843551" opacity="1.000000" stroke="none" 
	d="
M104.876785,96.092857 
	C104.583443,93.986252 104.039719,91.880249 104.034576,89.772942 
	C103.965698,61.523685 103.972008,33.274246 103.978470,4.563944 
	C104.335503,3.971515 104.673721,3.839997 105.056343,4.371119 
	C105.126015,13.692533 105.151268,22.351309 105.101196,31.472776 
	C104.976166,53.321266 104.926476,74.707062 104.876785,96.092857 
z"/>
<path fill="#A14465" opacity="1.000000" stroke="none" 
	d="
M20.175154,51.276955 
	C19.869358,49.853035 19.111862,47.634079 19.876873,46.781891 
	C23.994940,42.194580 28.446690,37.899525 32.938278,33.668137 
	C33.313515,33.314632 34.836639,34.179600 35.876976,35.091751 
	C35.606628,36.499989 35.285751,37.294941 34.964874,38.089893 
	C31.513472,41.066055 28.038445,44.015446 24.621759,47.030945 
	C23.160572,48.320557 21.820971,49.747936 20.175154,51.276955 
z"/>
<path fill="#843551" opacity="1.000000" stroke="none" 
	d="
M99.875458,3.687553 
	C98.602531,4.307826 97.185051,4.951239 95.765991,4.954712 
	C71.387604,5.014384 47.009014,5.002010 22.630526,4.967330 
	C21.669994,4.965964 20.709997,4.586421 19.887421,4.178541 
	C44.642712,3.983944 69.260353,4.007780 93.877892,3.966445 
	C95.233719,3.964169 96.588638,3.420318 97.943985,3.128554 
	C98.539375,3.223331 99.134773,3.318107 99.875458,3.687553 
z"/>
<path fill="#FFFFFF" opacity="1.000000" stroke="none" 
	d="
M97.480057,3.068915 
	C96.588638,3.420318 95.233719,3.964169 93.877892,3.966445 
	C69.260353,4.007780 44.642712,3.983944 19.564636,3.927853 
	C19.104183,3.881714 19.073582,3.940118 19.061176,3.733974 
	C19.048771,3.527830 19.079844,3.124732 19.079844,3.124732 
	C45.058609,3.086246 71.037369,3.047761 97.480057,3.068915 
z"/>
<path fill="#FFFCFF" opacity="1.000000" stroke="none" 
	d="
M104.948471,96.280502 
	C104.926476,74.707062 104.976166,53.321266 105.264603,31.472418 
	C105.503342,31.009365 105.830147,31.008327 105.830147,31.008327 
	C105.832657,52.882481 105.835159,74.756630 105.414848,96.749847 
	C104.992027,96.868904 105.020164,96.468147 104.948471,96.280502 
z"/>
<path fill="#984764" opacity="1.000000" stroke="none" 
	d="
M68.609970,78.892776 
	C66.574829,86.785347 61.109390,91.796700 53.262947,94.908745 
	C58.012562,89.602898 63.132484,84.275192 68.609970,78.892776 
z"/>
<path fill="#9B3C5D" opacity="1.000000" stroke="none" 
	d="
M34.974918,38.483643 
	C35.285751,37.294941 35.606628,36.499989 36.015770,35.398869 
	C36.394768,35.236233 36.935844,35.372948 36.939960,35.524281 
	C37.074558,40.469170 37.171978,45.415607 37.124222,50.360355 
	C37.123428,50.442642 35.264259,50.506992 34.131905,50.333511 
	C34.299561,48.457027 34.748028,46.838043 34.880390,45.193619 
	C35.048992,43.098972 34.961857,40.983746 34.974918,38.483643 
z"/>
<path fill="#994662" opacity="1.000000" stroke="none" 
	d="
M62.972923,56.014137 
	C61.160992,57.281395 59.349060,58.548649 57.200401,59.879585 
	C60.560680,56.091785 64.257675,52.240307 68.106033,48.130836 
	C68.528923,49.355621 68.800453,50.838394 68.719360,52.797054 
	C66.568794,54.186668 64.770859,55.100403 62.972923,56.014137 
z"/>
<path fill="#9C4060" opacity="1.000000" stroke="none" 
	d="
M28.999062,58.992996 
	C28.676805,60.980728 28.354549,62.968460 27.977606,65.293510 
	C26.507509,65.139626 25.021755,64.984100 23.263714,64.911835 
	C22.688551,64.477486 22.385674,63.959877 22.010586,63.147739 
	C23.555784,61.120228 25.173195,59.387249 27.140312,57.533539 
	C27.993032,57.939537 28.496048,58.466267 28.999062,58.992996 
z"/>
<path fill="#FFF4FB" opacity="1.000000" stroke="none" 
	d="
M105.905006,30.596138 
	C105.830147,31.008327 105.503342,31.009365 105.339935,31.009724 
	C105.151268,22.351309 105.126015,13.692533 105.167572,4.571868 
	C105.492821,6.402536 105.939957,8.692327 105.973633,10.988183 
	C106.067474,17.385424 105.989807,23.785183 105.905006,30.596138 
z"/>
<path fill="#A04362" opacity="1.000000" stroke="none" 
	d="
M38.238804,63.894966 
	C36.873375,62.478489 35.529530,61.035164 34.279739,59.148739 
	C34.607849,58.496517 34.816402,58.264477 34.999454,58.009518 
	C37.367283,58.003536 39.735115,57.997551 42.551144,58.197704 
	C42.999344,58.403843 43.005386,58.823803 43.005386,58.823803 
	C42.696995,59.043076 42.388599,59.262344 41.700516,59.838390 
	C41.018951,60.623600 40.717075,61.052032 40.415207,61.480469 
	C40.415207,61.480469 40.514381,61.523792 40.122581,61.536400 
	C39.232281,62.279003 38.733780,63.008999 38.235275,63.738998 
	C38.235279,63.738998 38.260387,63.868122 38.238804,63.894966 
z"/>
<path fill="#9C4060" opacity="1.000000" stroke="none" 
	d="
M34.862282,57.702354 
	C34.816402,58.264477 34.607849,58.496517 34.190651,58.851772 
	C33.254044,58.994076 32.500576,58.990250 31.348103,58.623749 
	C30.604353,57.115017 30.259613,55.968956 29.914875,54.822895 
	C29.914875,54.822895 30.010201,54.402519 30.377361,54.145996 
	C31.482338,53.607841 32.220154,53.326214 32.957966,53.044582 
	C33.547012,54.494785 34.136059,55.944988 34.862282,57.702354 
z"/>
<path fill="#994662" opacity="1.000000" stroke="none" 
	d="
M69.893585,39.479683 
	C70.030144,39.060116 70.223442,39.050526 70.706787,39.029549 
	C72.171906,42.177555 72.874367,45.236084 68.858124,47.281506 
	C68.983810,44.762646 69.467072,42.326157 69.893585,39.479683 
z"/>
<path fill="#FFFBFF" opacity="1.000000" stroke="none" 
	d="
M7.536446,77.185204 
	C7.964050,79.050323 8.005786,81.096703 8.039477,84.008904 
	C8.031074,87.196793 8.030715,89.518845 8.030356,91.840904 
	C7.737097,87.016090 7.443838,82.191269 7.536446,77.185204 
z"/>
<path fill="#A04362" opacity="1.000000" stroke="none" 
	d="
M29.582165,54.862236 
	C30.259613,55.968956 30.604353,57.115017 30.971489,58.620880 
	C30.550611,58.984341 30.107334,58.987999 29.331562,58.992325 
	C28.496048,58.466267 27.993032,57.939537 27.294636,57.221443 
	C27.815987,56.320580 28.532721,55.611080 29.582165,54.862236 
z"/>
<path fill="#9F4E68" opacity="1.000000" stroke="none" 
	d="
M8.338564,91.892189 
	C8.030715,89.518845 8.031074,87.196793 8.104433,84.442696 
	C9.293828,85.568764 10.410221,87.126869 11.772223,88.913536 
	C9.205886,88.044312 9.617709,90.825867 8.338564,91.892189 
z"/>
<path fill="#994662" opacity="1.000000" stroke="none" 
	d="
M51.680416,64.209846 
	C51.182846,65.377998 50.360588,66.594498 49.200790,67.874527 
	C49.694077,66.711441 50.524906,65.484810 51.680416,64.209846 
z"/>
<path fill="#A24869" opacity="1.000000" stroke="none" 
	d="
M43.312775,58.796543 
	C43.005386,58.823803 42.999344,58.403843 42.994675,58.193695 
	C43.802040,57.350502 44.614075,56.717453 45.765076,56.073112 
	C45.276081,56.964306 44.448124,57.866795 43.312775,58.796543 
z"/>
<path fill="#9F4E68" opacity="1.000000" stroke="none" 
	d="
M22.351261,79.968384 
	C22.850376,79.103287 23.631159,78.099106 24.772305,77.065598 
	C24.299421,77.967278 23.466173,78.898285 22.351261,79.968384 
z"/>
<path fill="#9F4E68" opacity="1.000000" stroke="none" 
	d="
M30.315550,72.024170 
	C30.018476,71.694649 30.004406,71.212402 30.002968,70.126122 
	C30.015596,69.522079 30.037663,69.036819 30.037663,69.036819 
	C30.816893,69.027176 31.596121,69.017532 32.765953,69.017723 
	C32.303886,69.975525 31.451221,70.923492 30.315550,72.024170 
z"/>
<path fill="#843551" opacity="1.000000" stroke="none" 
	d="
M104.065605,101.237457 
	C104.101021,100.487465 104.305962,99.958420 104.705803,99.220276 
	C104.678841,99.826927 104.456985,100.642662 104.065605,101.237457 
z"/>
<path fill="#984764" opacity="1.000000" stroke="none" 
	d="
M52.598755,94.925545 
	C52.449646,95.515541 51.958508,96.153145 51.161346,96.879974 
	C51.322456,96.303856 51.789589,95.638504 52.598755,94.925545 
z"/>
<path fill="#9F4E68" opacity="1.000000" stroke="none" 
	d="
M38.540287,63.645733 
	C38.733780,63.008999 39.232281,62.279003 40.104340,61.587341 
	C39.933697,62.267944 39.389496,62.910206 38.540287,63.645733 
z"/>
<path fill="#A04362" opacity="1.000000" stroke="none" 
	d="
M32.956261,52.731804 
	C32.220154,53.326214 31.482338,53.607841 30.451675,53.943687 
	C30.866274,53.295837 31.573721,52.593765 32.607124,51.842762 
	C32.940247,52.002228 32.947403,52.210625 32.956261,52.731804 
z"/>
<path fill="#9F4E68" opacity="1.000000" stroke="none" 
	d="
M20.312223,82.013687 
	C20.525728,81.505554 21.010983,80.865303 21.803087,80.139633 
	C21.601284,80.663338 21.092630,81.272461 20.312223,82.013687 
z"/>
<path fill="#9F4E68" opacity="1.000000" stroke="none" 
	d="
M16.318462,86.014694 
	C16.542488,85.508507 17.036964,84.863548 17.840626,84.131027 
	C17.629509,84.654282 17.109211,85.265106 16.318462,86.014694 
z"/>
<path fill="#9F4E68" opacity="1.000000" stroke="none" 
	d="
M40.692150,61.409668 
	C40.717075,61.052032 41.018951,60.623600 41.579170,60.099548 
	C41.548046,60.448914 41.258572,60.893890 40.692150,61.409668 
z"/>
<path fill="#9B566A" opacity="1.000000" stroke="none" 
	d="
M11.438200,59.194946 
	C11.352733,58.885395 11.594358,58.630344 12.040342,58.212891 
	C12.084898,58.450146 11.925096,58.849796 11.438200,59.194946 
z"/>
<path fill="#843551" opacity="1.000000" stroke="none" 
	d="
M8.771381,4.198322 
	C8.860199,4.426624 8.677722,4.615685 8.303776,4.889089 
	C8.055486,4.627515 8.184746,4.356065 8.771381,4.198322 
z"/>
<path fill="#843551" opacity="1.000000" stroke="none" 
	d="
M18.819908,3.141521 
	C19.079844,3.124732 19.048771,3.527830 19.092760,3.725221 
	C18.952450,3.944477 18.768148,3.966342 18.305849,4.000827 
	C18.205227,3.728401 18.382599,3.443356 18.819908,3.141521 
z"/>
<path fill="#843551" opacity="1.000000" stroke="none" 
	d="
M16.914341,3.800167 
	C16.976759,4.011213 16.498655,4.033914 16.259670,4.021866 
	C16.297764,3.869586 16.574842,3.729353 16.914341,3.800167 
z"/>
<path fill="#9F4E68" opacity="1.000000" stroke="none" 
	d="
M11.994304,89.304062 
	C12.101464,89.065300 12.314919,89.055840 12.849036,89.051483 
	C12.813331,89.215523 12.456964,89.374451 11.994304,89.304062 
z"/>
<path fill="#994662" opacity="1.000000" stroke="none" 
	d="
M53.727684,63.033012 
	C53.780796,63.216610 53.555508,63.460911 53.091003,63.816654 
	C53.085762,63.682072 53.284927,63.403946 53.727684,63.033012 
z"/>
<path fill="#994662" opacity="1.000000" stroke="none" 
	d="
M54.746078,61.173515 
	C54.833633,61.374123 54.670074,61.559986 54.343613,61.847008 
	C54.076443,61.611229 54.181198,61.348103 54.746078,61.173515 
z"/>
<path fill="#A7395F" opacity="1.000000" stroke="none" 
	d="
M62.834053,56.330330 
	C64.770859,55.100403 66.568794,54.186668 68.664612,53.122726 
	C69.231026,53.163826 69.475777,53.381840 69.849884,54.064156 
	C70.003021,54.501770 70.002930,54.994213 70.002930,54.994213 
	C69.749954,55.496742 69.496971,55.999275 69.120026,56.754608 
	C65.327461,59.632404 61.050102,61.675396 61.238178,67.396042 
	C61.266830,68.267487 58.715023,69.223747 57.356735,70.140778 
	C56.864380,69.800743 56.372028,69.460709 55.879673,69.120674 
	C55.879673,70.852745 55.879673,72.584824 55.942863,74.654221 
	C53.149097,74.479691 51.660908,75.902672 49.254642,77.574936 
	C44.121380,81.142357 42.243721,88.146095 35.572792,89.827728 
	C34.759563,90.032745 34.732956,92.529282 33.877750,93.589523 
	C32.571167,95.209381 31.017786,96.777512 29.241726,97.797318 
	C28.551487,98.193649 26.971088,97.039711 25.796177,96.591949 
	C26.373758,95.532410 26.783859,94.326355 27.559296,93.439896 
	C30.235312,90.380722 32.995796,87.392021 35.802368,84.451157 
	C42.250957,77.694023 48.647060,70.881653 55.271835,64.300438 
	C57.796902,61.791965 62.280426,61.221977 62.834053,56.330330 
z"/>
<path fill="#994662" opacity="1.000000" stroke="none" 
	d="
M71.200844,35.735733 
	C71.007851,34.927811 71.000435,33.865356 70.994415,32.404366 
	C71.126007,33.164288 71.256210,34.322742 71.200844,35.735733 
z"/>
<path fill="#A14265" opacity="1.000000" stroke="none" 
	d="
M70.090355,54.882568 
	C70.002930,54.994213 70.003021,54.501770 70.003860,54.255688 
	C70.232964,54.231678 70.290657,54.485451 70.090355,54.882568 
z"/>
<path fill="#A04362" opacity="1.000000" stroke="none" 
	d="
M29.941738,69.140228 
	C30.037663,69.036819 30.015596,69.522079 30.002800,69.764664 
	C29.769497,69.777992 29.721434,69.523453 29.941738,69.140228 
z"/>
<path fill="#A04362" opacity="1.000000" stroke="none" 
	d="
M32.494503,66.494537 
	C32.513615,66.487770 32.475391,66.501297 32.494503,66.494537 
z"/>
</svg>