<?xml version="1.0" encoding="UTF-8"?>
<svg version="1.1" xmlns="http://www.w3.org/2000/svg" width="255" height="260">
<path d="M0 0 C82.83 0 165.66 0 251 0 C251.04033135 64.45397707 251.04033135 64.45397707 251.04882812 91.30664062 C251.05078614 97.45353193 251.05280666 103.60042321 251.05493164 109.74731445 C251.05519539 110.517777 251.05545914 111.28823954 251.05573088 112.08204943 C251.06008574 124.53698108 251.0679726 136.99190814 251.0771528 149.44683706 C251.0864889 162.21937176 251.09205552 174.99190405 251.09408849 187.76444203 C251.09546381 195.65217095 251.09981488 203.5398869 251.10791647 211.42761184 C251.11380406 217.46565103 251.11445907 223.50367894 251.11310768 229.54172134 C251.11338421 232.02625293 251.11539199 234.51078497 251.11920547 236.99531364 C251.1241357 240.3712382 251.12300078 243.74710591 251.12025452 247.12303162 C251.12462378 248.61862292 251.12462378 248.61862292 251.12908131 250.14442819 C251.12709026 251.04165191 251.12509921 251.93887562 251.12304783 252.86328793 C251.12342755 253.6436132 251.12380727 254.42393848 251.1241985 255.22790998 C251 257 251 257 250 258 C248.64993803 258.09636367 247.2948713 258.12371954 245.94137478 258.12304783 C244.62166468 258.1260344 244.62166468 258.1260344 243.27529377 258.12908131 C242.29768764 258.12616847 241.32008151 258.12325563 240.31285095 258.12025452 C238.76798652 258.12153615 238.76798652 258.12153615 237.19191271 258.12284368 C233.7124786 258.12450157 230.23309184 258.11897208 226.75366211 258.11352539 C224.27078757 258.11324356 221.78791294 258.11340117 219.30503845 258.1139679 C213.94498514 258.11419622 208.5849468 258.11134478 203.22489738 258.10573006 C195.47508204 258.09761728 187.72527258 258.09500007 179.97545344 258.09374207 C167.40314727 258.09155119 154.83084758 258.08489016 142.25854492 258.07543945 C130.04272494 258.06626624 117.82690671 258.05918496 105.61108398 258.05493164 C104.85862382 258.05466892 104.10616366 258.05440619 103.33090167 258.05413551 C99.55618636 258.05283051 95.78147104 258.05156679 92.00675571 258.05032361 C60.67116577 258.0399499 29.33558386 258.02225651 -2 258 C-2.00120083 255.61922185 -2.00207354 253.23844432 -2.00276184 250.85766602 C-2.0031321 250.19018593 -2.00350236 249.52270584 -2.00388384 248.83499908 C-2.00574514 240.23062512 -1.89084604 231.62969918 -1.73754883 223.02685547 C-1.70394752 220.99471387 -1.67603058 218.96247098 -1.65356445 216.93017578 C-1.61997721 213.95306001 -1.56777055 210.97676734 -1.51171875 208 C-1.50532883 207.09886475 -1.4989389 206.19772949 -1.49235535 205.26928711 C-1.47256119 204.41729736 -1.45276703 203.56530762 -1.43237305 202.6875 C-1.41571846 201.57955078 -1.41571846 201.57955078 -1.39872742 200.44921875 C-0.40817633 194.36467028 2.35955351 190.14029653 6.66748047 185.87841797 C7.12805847 185.41725586 7.58863647 184.95609375 8.06317139 184.48095703 C9.5718824 182.97500825 11.09421515 181.48370012 12.6171875 179.9921875 C13.67796977 178.9388802 14.73786155 177.88467541 15.79690552 176.82962036 C18.57767896 174.06405387 21.37024023 171.31070019 24.16552734 168.55981445 C26.99904484 165.76716888 29.82133779 162.96323164 32.64453125 160.16015625 C37.61967443 155.22319355 42.60452157 150.29622013 47.59664917 145.37643433 C49.28593648 143.70606631 50.96892219 142.02931299 52.64724731 140.34793091 C54.2658674 138.73262806 55.90853023 137.14117659 57.5703125 135.5703125 C58.41335937 134.76335937 59.25640625 133.95640625 60.125 133.125 C60.97320312 132.32320312 61.82140625 131.52140625 62.6953125 130.6953125 C67.60000704 124.9593138 68.44287806 119.71549334 68.29296875 112.44140625 C68.28872391 111.65225327 68.28447906 110.86310028 68.28010559 110.05003357 C68.26344452 107.55382739 68.22581779 105.05845808 68.1875 102.5625 C68.17243683 100.86003778 68.15875129 99.15756279 68.14648438 97.45507812 C68.1135825 93.3030678 68.06188951 89.1516753 68 85 C67.49662109 85.50861572 66.99324219 86.01723145 66.47460938 86.54125977 C64.15248022 88.88440728 61.8262723 91.22346602 59.5 93.5625 C58.70851562 94.36236328 57.91703125 95.16222656 57.1015625 95.98632812 C56.31523438 96.77587891 55.52890625 97.56542969 54.71875 98.37890625 C54.00654297 99.0963501 53.29433594 99.81379395 52.56054688 100.55297852 C50.51570678 102.50715779 48.44336918 104.35657377 46.30078125 106.19921875 C41.47221219 110.39601603 36.97677187 114.89766223 32.46875 119.43359375 C31.59222778 120.31153091 30.71570557 121.18946808 29.81262207 122.0940094 C27.03937204 124.87281496 24.26963718 127.65509397 21.5 130.4375 C19.60989195 132.33319865 17.71898482 134.22809783 15.828125 136.12304688 C11.21608996 140.74605189 6.60692859 145.37190657 2 150 C1.34 149.67 0.68 149.34 0 149 C0 99.83 0 50.66 0 0 Z M220 24 C219.67 24.99 219.34 25.98 219 27 C216.69 26.67 214.38 26.34 212 26 C212.33 27.98 212.66 29.96 213 32 C211.68 32.33 210.36 32.66 209 33 C209.33 35.97 209.66 38.94 210 42 C211.65 42.33 213.3 42.66 215 43 C215.33 44.65 215.66 46.3 216 48 C216.928125 47.814375 217.85625 47.62875 218.8125 47.4375 C222 47 222 47 225 48 C225.33 46.35 225.66 44.7 226 43 C227.65 42.67 229.3 42.34 231 42 C230.79375 41.2575 230.5875 40.515 230.375 39.75 C229.95591249 36.67669159 230.38050989 35.57213134 232 33 C230.68 32.67 229.36 32.34 228 32 C228 30.02 228 28.04 228 26 C226.8553125 26.061875 226.8553125 26.061875 225.6875 26.125 C223 26 223 26 220 24 Z M154.05453491 77.81848145 C152.78028152 79.0885051 152.78028152 79.0885051 151.48028564 80.38418579 C150.53156619 81.33484999 149.58289852 82.28556586 148.63427734 83.23632812 C147.64078198 84.22846948 146.64707378 85.22039775 145.65316772 86.21212769 C142.94387614 88.91684075 140.23778157 91.62473187 137.5323596 94.3333149 C134.69971293 97.16848794 131.86463313 100.00122619 129.02993774 102.83435059 C124.26148226 107.60098311 119.49514647 112.3697276 114.72998047 117.13964844 C109.2339422 122.64110776 103.73434029 128.13898485 98.23283041 133.6349721 C93.50647304 138.3567758 88.78208711 143.08054536 84.05931056 147.80593061 C81.2404146 150.62637978 78.42086142 153.44616302 75.59952927 156.26417542 C72.93954664 158.92124736 70.28206411 161.58079576 67.62640762 164.24219131 C66.19688797 165.67364342 64.76493457 167.10266381 63.33288574 168.53158569 C58.87824096 173.00072841 54.5724212 177.52918581 50.46048355 182.31576538 C48.67041845 184.38007457 46.78489451 186.32213388 44.84057617 188.24121094 C44.10679245 188.96846375 43.37300873 189.69571655 42.61698914 190.44500732 C41.46659904 191.57824432 41.46659904 191.57824432 40.29296875 192.734375 C38.63854163 194.37617085 36.98424861 196.01810184 35.33007812 197.66015625 C32.74676081 200.21855569 30.16185777 202.775314 27.57446289 205.32958984 C25.05960048 207.8143242 22.55093271 210.30518067 20.04296875 212.796875 C18.87739693 213.94225739 18.87739693 213.94225739 17.6882782 215.11077881 C16.61124382 216.18274506 16.61124382 216.18274506 15.51245117 217.27636719 C14.8807048 217.90065613 14.24895844 218.52494507 13.59806824 219.16815186 C10.48559033 222.73595124 9.75024391 225.52097612 9.8046875 230.203125 C9.81113281 231.1828125 9.81757813 232.1625 9.82421875 233.171875 C9.84097656 234.18765625 9.85773437 235.2034375 9.875 236.25 C9.88402344 237.28125 9.89304687 238.3125 9.90234375 239.375 C9.92587989 241.91690287 9.95875977 244.4583328 10 247 C12.67009837 247.19115477 15.32628503 247.32850496 18 247.4375 C18.74378906 247.49615234 19.48757812 247.55480469 20.25390625 247.61523438 C24.87974994 247.75602092 27.37908721 247.0899522 30.81140137 243.91804504 C31.50491196 243.2814628 32.19842255 242.64488056 32.91294861 241.98900795 C36.15087472 238.90318994 39.35584566 235.79164125 42.51757812 232.62768555 C43.57271606 231.57758553 43.57271606 231.57758553 44.64916992 230.50627136 C46.94581778 228.21903239 49.23876185 225.92812645 51.53125 223.63671875 C53.13400102 222.03718385 54.73682607 220.43772313 56.33972168 218.83833313 C59.68333473 215.50068355 63.02489907 212.16099816 66.36523438 208.82006836 C70.65552476 204.52967571 74.95269086 200.24624032 79.25159454 195.9644804 C82.55596973 192.67118492 85.85582933 189.37339398 89.15440369 186.07428932 C90.73811199 184.49176421 92.32344923 182.91086757 93.91041565 181.33160973 C96.11755011 179.13420741 98.31833636 176.93063938 100.51757812 174.7253418 C101.17826294 174.07027649 101.83894775 173.41521118 102.51965332 172.74029541 C105.83359536 169.89921904 105.83359536 169.89921904 107 166 C107.99 165.67 108.98 165.34 110 165 C110 164.34 110 163.68 110 163 C110.66 163 111.32 163 112 163 C112 162.34 112 161.68 112 161 C112.66 161 113.32 161 114 161 C115.63675508 159.38200498 115.63675508 159.38200498 117.3125 157.3125 C119.43644684 154.80197706 121.55501344 152.39176579 123.9375 150.125 C126.23215846 148.25436301 126.23215846 148.25436301 126 146 C126.57234375 145.7525 127.1446875 145.505 127.734375 145.25 C130.35010611 143.80683801 132.14773456 142.11783778 134.25 140 C134.95640625 139.29875 135.6628125 138.5975 136.390625 137.875 C138.21710399 136.15889232 138.21710399 136.15889232 138 134 C138.87072144 133.61714844 138.87072144 133.61714844 139.7590332 133.2265625 C142.22876977 131.874786 143.87329644 130.36983874 145.85546875 128.375 C146.91217773 127.31539062 146.91217773 127.31539062 147.99023438 126.234375 C148.71533203 125.49703125 149.44042969 124.7596875 150.1875 124 C151.29254883 122.89398438 151.29254883 122.89398438 152.41992188 121.765625 C157.35852503 116.78613184 159.11398201 114.94156145 159.11329651 107.67477417 C159.10813522 106.81014557 159.10297394 105.94551697 159.09765625 105.0546875 C159.0962413 104.1696756 159.09482635 103.2846637 159.09336853 102.37283325 C159.0877614 99.54018809 159.07520771 96.70762136 159.0625 93.875 C159.05748592 91.95703239 159.05292285 90.03906354 159.04882812 88.12109375 C159.03778966 83.41403218 159.02052025 78.7070294 159 74 C156.99661538 74 155.35524049 76.51843663 154.05453491 77.81848145 Z M152.9921875 159.7421875 C152.26396286 160.46754196 152.26396286 160.46754196 151.52102661 161.20755005 C150.49479068 162.23242353 149.47108198 163.25983284 148.44970703 164.28955078 C146.88139051 165.8685659 145.30271413 167.43665033 143.72265625 169.00390625 C142.72852474 169.99935934 141.73501381 170.99543265 140.7421875 171.9921875 C139.8332373 172.90339355 138.92428711 173.81459961 137.98779297 174.75341797 C135.77911511 176.74968471 135.77911511 176.74968471 136 179 C134.515 179.495 134.515 179.495 133 180 C133 180.66 133 181.32 133 182 C132.34 182 131.68 182 131 182 C131 182.66 131 183.32 131 184 C130.34 184 129.68 184 129 184 C127.61853753 185.36396793 127.61853753 185.36396793 126.15600586 187.21508789 C121.4817036 192.70664267 116.37266646 197.73972482 111.25930977 202.81585503 C109.47105589 204.5912071 107.68606639 206.36978586 105.90184021 208.14918518 C102.12488483 211.91479869 98.34396849 215.67641937 94.5625 219.4375 C90.15427755 223.82212308 85.7476923 228.20836652 81.34525871 232.59880257 C79.58339734 234.35416533 77.81856319 236.10650206 76.05360413 237.85874939 C74.98423924 238.92448534 73.91501248 239.99035993 72.84594727 241.05639648 C72.3520047 241.54517273 71.85806213 242.03394897 71.34915161 242.53753662 C70.21363529 243.67287276 69.10371641 244.83372578 68 246 C68 246.33 68 246.66 68 247 C75.0426479 247.83934367 81.97287238 248.15464304 89.0625 248.125 C89.99126953 248.12886719 90.92003906 248.13273437 91.87695312 248.13671875 C92.79541016 248.13542969 93.71386719 248.13414062 94.66015625 248.1328125 C95.47105713 248.13168457 96.28195801 248.13055664 97.11743164 248.12939453 C98.0686792 248.08669434 99.01992676 248.04399414 100 248 C100.6344101 248.05081223 101.26882019 248.10162445 101.92245483 248.15397644 C107.62129492 248.21430807 110.45736068 246.14683833 114.59570312 242.32836914 C116.6942593 240.26510136 118.73900571 238.15396255 120.78125 236.03515625 C121.88531493 234.91869196 122.99109788 233.80392423 124.09851074 232.69078064 C126.99653217 229.76799218 129.86931371 226.82155874 132.73779297 223.86981201 C135.08910146 221.45832006 137.45728165 219.06379555 139.82660675 216.67002201 C144.71510202 211.73097289 149.59259168 206.78095796 154.43945312 201.80102539 C155.2983313 200.92023819 156.15720947 200.03945099 157.04211426 199.13197327 C160.74823335 195.09632059 160.12881743 191.2748697 160.09765625 186.0546875 C160.0962413 185.1696756 160.09482635 184.2846637 160.09336853 183.37283325 C160.0877614 180.54018809 160.07520771 177.70762136 160.0625 174.875 C160.05748592 172.95703239 160.05292285 171.03906354 160.04882812 169.12109375 C160.03778966 164.41403218 160.02052025 159.7070294 160 155 C156.69211767 155 155.26684904 157.47315731 152.9921875 159.7421875 Z " fill="#650C2E" transform="translate(3,0)"/>
<path d="M0 0 C82.83 0 165.66 0 251 0 C251 82.5 251 165 251 250 C248.63311401 247.63311401 248.72004304 247.10183464 248.58937073 243.87527466 C248.53199313 242.51627454 248.53199313 242.51627454 248.47345638 241.12981987 C248.42774171 239.58080073 248.42774171 239.58080073 248.38110352 238.00048828 C248.32459924 236.3101884 248.32459924 236.3101884 248.26695347 234.58574104 C247.70511992 214.9141093 247.87435518 195.22249125 247.89860606 175.54514456 C247.90493102 169.53279326 247.90545053 163.52044127 247.90663147 157.50808716 C247.90971818 146.165214 247.91789507 134.82235068 247.92798096 123.47948182 C247.93922553 110.54805005 247.94467341 97.61661778 247.94967639 84.68518233 C247.96008043 58.12344947 247.97762741 31.56172529 248 5 C246.52744751 4.96241577 246.52744751 4.96241577 245.02514648 4.92407227 C241.30680018 4.82834734 237.58857111 4.72856285 233.87036133 4.62768555 C232.27533756 4.58494883 230.68028569 4.54324546 229.08520508 4.50268555 C226.7637469 4.44346094 224.44241261 4.38085249 222.12109375 4.31640625 C221.35493744 4.29575104 220.58878113 4.27509583 219.79940796 4.2538147 C216.09372038 4.14164906 212.40670714 3.97490519 208.71142578 3.67138672 C208.03709 3.61683823 207.36275421 3.56228973 206.66798401 3.50608826 C204.85057365 3.35077536 203.0346897 3.17788082 201.21899414 3.00366211 C197.73365488 2.99969699 195.26713564 3.86810395 192 5 C191.01 4.67 190.02 4.34 189 4 C186.69365341 3.9054203 184.38459416 3.87370046 182.0763092 3.87301636 C181.36759106 3.87145637 180.65887291 3.86989638 179.92867845 3.86828911 C177.54756478 3.86429225 175.16651457 3.86746382 172.78540039 3.87060547 C171.08031171 3.86925074 169.37522333 3.8674704 167.6701355 3.86529541 C163.03121834 3.86072654 158.39232337 3.86250923 153.75340581 3.8656745 C148.89431399 3.86820459 144.03522409 3.8658584 139.1761322 3.86428833 C131.00568298 3.86246698 122.83524278 3.86487042 114.66479492 3.86962891 C105.2395219 3.87505509 95.81427057 3.87332073 86.38899809 3.8678025 C78.28860288 3.8632508 70.18821417 3.86263136 62.08781809 3.86524117 C57.25399225 3.86679475 52.42017657 3.86702332 47.58635139 3.86370468 C43.03177895 3.86079664 38.47723413 3.86285513 33.92266464 3.86859894 C32.25870624 3.8699116 30.59474548 3.86955809 28.93078804 3.86733627 C26.64267607 3.86456498 24.35465021 3.86807774 22.06654358 3.87301636 C20.15321527 3.8735819 20.15321527 3.8735819 18.20123386 3.87415886 C12.79022581 4.03623682 7.39473559 4.5504387 2 5 C2 51.2 2 97.4 2 145 C2.99 145 3.98 145 5 145 C5 144.34 5 143.68 5 143 C7.375 140.375 7.375 140.375 10 138 C10.66 138 11.32 138 12 138 C12.33 137.01 12.66 136.02 13 135 C14.65002828 133.64613064 16.3174387 132.31321858 18 131 C18.66 130.01 19.32 129.02 20 128 C20.66 128 21.32 128 22 128 C22.28875 127.38125 22.5775 126.7625 22.875 126.125 C24 124 24 124 26 122 C27.485 122.495 27.485 122.495 29 123 C15.635 136.365 15.635 136.365 2 150 C1.34 149.67 0.68 149.34 0 149 C0 99.83 0 50.66 0 0 Z " fill="#510C26" transform="translate(3,0)"/>
<path d="M0 0 C0 3 0 3 -2 6 C-2.66 6 -3.32 6 -4 6 C-3.99476318 6.69037354 -3.98952637 7.38074707 -3.98413086 8.09204102 C-3.96322133 11.24885126 -3.95029558 14.40564686 -3.9375 17.5625 C-3.92912109 18.64853516 -3.92074219 19.73457031 -3.91210938 20.85351562 C-3.89882088 25.22543049 -3.91540922 29.40848201 -4.53515625 33.7421875 C-5.20848407 38.46114043 -4.72031283 42.98202737 -4.31640625 47.71289062 C-3.78813826 55.06354639 -4.45507175 61.37100455 -5 69 C77.5 69 160 69 245 69 C244.67 69.66 244.34 70.32 244 71 C160.84 71 77.68 71 -8 71 C-8 59.33642935 -7.94532204 47.6868223 -7.73754883 36.02685547 C-7.70394752 33.99471387 -7.67603058 31.96247098 -7.65356445 29.93017578 C-7.61997721 26.95306001 -7.56777055 23.97676734 -7.51171875 21 C-7.50532883 20.09886475 -7.4989389 19.19772949 -7.49235535 18.26928711 C-7.338574 11.65015635 -6.37568 6.64718628 -1.8125 1.5625 C-1.214375 1.046875 -0.61625 0.53125 0 0 Z " fill="#4D0B20" transform="translate(9,187)"/>
<path d="M0 0 C62.04 0.33 124.08 0.66 188 1 C188 1.33 188 1.66 188 2 C127.28 2 66.56 2 4 2 C4 2.66 4 3.32 4 4 C3.34 4.66 2.68 5.32 2 6 C1.70082734 8.52611505 1.70082734 8.52611505 1.75949097 11.51748657 C1.75674164 12.68980331 1.75399231 13.86212006 1.75115967 15.06996155 C1.75835022 16.36252365 1.76554077 17.65508575 1.77294922 18.98681641 C1.77351314 20.35655204 1.77319715 21.72628828 1.77206421 23.09602356 C1.77148893 26.82104558 1.78327138 30.54593954 1.79721212 34.27093172 C1.80969046 38.161358 1.81088769 42.05178702 1.81326294 45.94223022 C1.81948625 53.31225482 1.83590854 60.68222028 1.85596192 68.05221879 C1.87829449 76.44145638 1.88930769 84.83069674 1.89935279 93.21995664 C1.92027406 110.48000533 1.95546651 127.73999642 2 145 C2.99 145 3.98 145 5 145 C5 144.34 5 143.68 5 143 C7.375 140.375 7.375 140.375 10 138 C10.66 138 11.32 138 12 138 C12.33 137.01 12.66 136.02 13 135 C14.65002828 133.64613064 16.3174387 132.31321858 18 131 C18.66 130.01 19.32 129.02 20 128 C20.66 128 21.32 128 22 128 C22.28875 127.38125 22.5775 126.7625 22.875 126.125 C24 124 24 124 26 122 C27.485 122.495 27.485 122.495 29 123 C15.635 136.365 15.635 136.365 2 150 C1.34 149.67 0.68 149.34 0 149 C0 99.83 0 50.66 0 0 Z " fill="#451420" transform="translate(3,0)"/>
<path d="M0 0 C0.33 0 0.66 0 1 0 C1.17240006 24.29162811 1.33870962 48.5832956 1.5 72.875 C1.50594854 73.76983329 1.51189708 74.66466659 1.51802588 75.58661604 C1.81954742 120.99522288 2.10409364 166.40264189 2.0625 211.8125 C2.06164398 212.7543087 2.06078796 213.6961174 2.05990601 214.66646576 C2.04931428 225.4443358 2.03072752 236.22216733 2 247 C-0.36757919 244.63242081 -0.27970032 244.10051538 -0.40939331 240.87280273 C-0.4664957 239.51325218 -0.4664957 239.51325218 -0.52475166 238.12623596 C-0.55509436 237.09328903 -0.58543705 236.0603421 -0.61669922 234.99609375 C-0.65429792 233.86908554 -0.69189663 232.74207733 -0.73063469 231.58091736 C-1.29280858 211.93277489 -1.14534396 192.26501062 -1.1343255 172.61100769 C-1.13176465 166.60492916 -1.13414896 160.59885204 -1.13571167 154.59277344 C-1.13751924 144.5405245 -1.13516088 134.48828297 -1.13037109 124.43603516 C-1.12489551 112.81007649 -1.12672049 101.18413527 -1.1321975 89.55817699 C-1.13672672 79.54241632 -1.13738119 69.52666091 -1.13475883 59.51089954 C-1.13319956 53.54202296 -1.13299346 47.57315462 -1.13629532 41.60427856 C-1.13917243 36.01607753 -1.13720138 30.42789926 -1.13140106 24.8397007 C-1.13007413 22.78612112 -1.13046646 20.73253963 -1.13266373 18.6789608 C-1.1353769 15.88718457 -1.13199245 13.09548239 -1.12698364 10.30371094 C-1.12921436 9.48293595 -1.13144509 8.66216097 -1.13374341 7.81651402 C-1.11415244 2.22830488 -1.11415244 2.22830488 0 0 Z " fill="#510323" transform="translate(252,3)"/>
<path d="M0 0 C-1.43114617 3.26552992 -3.17935111 5.4249493 -5.69953918 7.93331909 C-6.46916489 8.70424896 -7.23879059 9.47517883 -8.03173828 10.26947021 C-8.87696045 11.10593079 -9.72218262 11.94239136 -10.59301758 12.80419922 C-11.48260666 13.69247406 -12.37219574 14.5807489 -13.28874207 15.49594116 C-15.22181383 17.42608232 -17.15799702 19.35302721 -19.09665871 21.27755356 C-22.16550935 24.32410216 -25.22722366 27.37775577 -28.28800964 30.43240356 C-33.13373424 35.26674912 -37.98410627 40.09640074 -42.83652753 44.92402375 C-51.51640282 53.55960722 -60.19078343 62.20070091 -68.85986632 70.8471185 C-71.89994113 73.87881447 -74.94280159 76.9076779 -77.98797381 79.93425345 C-79.42862349 81.3667922 -80.86812431 82.80047386 -82.30714417 84.23464966 C-84.05670555 85.97821545 -85.80808443 87.7199603 -87.56167603 89.45947266 C-91.59943859 93.48936994 -95.44456986 97.53697015 -99 102 C-99.33 101.01 -99.66 100.02 -100 99 C-96.61009218 93.71404204 -91.4992648 89.51314436 -86.69921875 85.54296875 C-84.76731446 83.91432017 -84.76731446 83.91432017 -83 81 C-81 79.33333333 -79 77.66666667 -77 76 C-76.34 75.01 -75.68 74.02 -75 73 C-74.34 73 -73.68 73 -73 73 C-72.505 71.515 -72.505 71.515 -72 70 C-70.3603279 68.63360658 -68.68889872 67.3050581 -67 66 C-63.00683839 62.322088 -59.84296081 58.25599169 -56.6484375 53.890625 C-55 52 -55 52 -52 51 C-50.80208677 49.5691592 -49.6085777 48.13412953 -48.44921875 46.671875 C-46.93778014 44.92822076 -45.34445833 43.52583002 -43.5625 42.0625 C-40.45457143 39.49390828 -37.9592275 36.68869363 -35.3984375 33.5859375 C-33.49603593 31.42846532 -31.24322932 29.79458346 -29 28 C-27.44363314 26.28220148 -25.96042552 24.51501063 -24.4765625 22.734375 C-22.44840296 20.35209237 -20.24054135 18.18157974 -18 16 C-17.278125 15.236875 -16.55625 14.47375 -15.8125 13.6875 C-14 12 -14 12 -12 12 C-11.62875 11.14148438 -11.62875 11.14148438 -11.25 10.265625 C-9.80683801 7.64989389 -8.11783778 5.85226544 -6 3.75 C-4.948125 2.69039063 -4.948125 2.69039063 -3.875 1.609375 C-2 0 -2 0 0 0 Z " fill="#480922" transform="translate(154,80)"/>
<path d="M0 0 C0.66 0.33 1.32 0.66 2 1 C1.28344238 1.70608398 0.56688477 2.41216797 -0.17138672 3.13964844 C-2.83403473 5.76603723 -5.49000997 8.39908784 -8.14404297 11.03417969 C-9.29262909 12.17272175 -10.44300565 13.30946058 -11.59521484 14.44433594 C-13.25314197 16.07794489 -14.90447603 17.71797679 -16.5546875 19.359375 C-17.06933563 19.86370056 -17.58398376 20.36802612 -18.11422729 20.88763428 C-22.47480938 25.24684502 -24.19957104 28.05436991 -24.4140625 34.203125 C-24.45273437 35.1828125 -24.49140625 36.1625 -24.53125 37.171875 C-24.5621875 38.18765625 -24.593125 39.2034375 -24.625 40.25 C-24.66367187 41.28125 -24.70234375 42.3125 -24.7421875 43.375 C-24.83631674 45.9164894 -24.92194979 48.45797433 -25 51 C-13.54341369 51.5744098 -13.54341369 51.5744098 -3.5625 47.0625 C-2.3469648 45.73344101 -1.16218779 44.37595172 0 43 C1.8242698 41.17837791 3.65794003 39.36613035 5.5 37.5625 C7.00251195 36.04414831 8.50341097 34.52419005 10 33 C10.33 33.99 10.66 34.98 11 36 C8.06778389 40.91745193 3.69580446 43.90503797 -1 47 C-1.33 47.70125 -1.66 48.4025 -2 49.125 C-3 51 -3 51 -5.5078125 52.109375 C-9.73598325 53.18770042 -13.53762467 53.22056929 -17.875 53.125 C-19.050625 53.11146484 -19.050625 53.11146484 -20.25 53.09765625 C-22.16680055 53.07428063 -24.08344191 53.03841653 -26 53 C-27.9294447 45.05330402 -29.42415806 33.68127454 -26.14453125 25.99511719 C-23.96453497 22.46344451 -21.2506675 19.55828706 -18 17 C-17.34 17 -16.68 17 -16 17 C-15.773125 16.4225 -15.54625 15.845 -15.3125 15.25 C-13.66216522 12.42085466 -11.56741423 11.01725404 -9 9 C-8.278125 8.0925 -7.55625 7.185 -6.8125 6.25 C-5.9153125 5.13625 -5.9153125 5.13625 -5 4 C-4.34 4 -3.68 4 -3 4 C-3 3.34 -3 2.68 -3 2 C-2.01 1.34 -1.02 0.68 0 0 Z " fill="#4F0D25" transform="translate(38,196)"/>
<path d="M0 0 C3 1 3 1 5 4 C5.20849609 6.65991211 5.20849609 6.65991211 5.1484375 9.83984375 C5.13006836 11.00112793 5.11169922 12.16241211 5.09277344 13.35888672 C5.0621582 14.5604541 5.03154297 15.76202148 5 17 C4.97711914 18.13324707 4.95423828 19.26649414 4.93066406 20.43408203 C4.85168113 23.81133358 4.74229431 27.18637884 4.625 30.5625 C4.57859375 32.28436523 4.57859375 32.28436523 4.53125 34.04101562 C4.49257812 35.14251953 4.45390625 36.24402344 4.4140625 37.37890625 C4.3826416 38.3644751 4.3512207 39.35004395 4.31884766 40.36547852 C3.66089574 45.80189436 0.8153861 48.26940025 -3 52 C-4.83670981 54.12567493 -6.65038174 56.26797454 -8.44921875 58.42578125 C-8.96097656 58.94527344 -9.47273437 59.46476562 -10 60 C-10.66 60 -11.32 60 -12 60 C-12 60.66 -12 61.32 -12 62 C-13.64453125 63.65625 -13.64453125 63.65625 -15.8125 65.5 C-16.52019531 66.1084375 -17.22789062 66.716875 -17.95703125 67.34375 C-20 69 -20 69 -23 71 C-23 66.92412524 -21.74008328 66.01409161 -19 63 C-17.14890302 61.33619048 -15.25918473 59.72259091 -13.3671875 58.10546875 C-10.50258692 55.55758144 -7.77609629 52.89446375 -5.0625 50.1875 C-4.57773193 49.70716309 -4.09296387 49.22682617 -3.59350586 48.73193359 C0.52662851 44.59492245 1.1138649 42.70189855 1.11329651 36.82723999 C1.10813522 35.98448517 1.10297394 35.14173035 1.09765625 34.2734375 C1.0962413 33.41062164 1.09482635 32.54780579 1.09336853 31.65884399 C1.08776188 28.8975277 1.07520827 26.13629188 1.0625 23.375 C1.05748586 21.5052095 1.0529228 19.63541774 1.04882812 17.765625 C1.03779029 13.17705223 1.0205212 8.58853977 1 4 C-0.65 5.32 -2.3 6.64 -4 8 C-4.33 7.34 -4.66 6.68 -5 6 C-3.35 4.02 -1.7 2.04 0 0 Z " fill="#490E26" transform="translate(160,71)"/>
<path d="M0 0 C0 3.74016583 -0.9341591 4.45276193 -3.375 7.1875 C-4.00148438 7.90292969 -4.62796875 8.61835938 -5.2734375 9.35546875 C-7 11 -7 11 -9 11 C-9.38671875 11.8971875 -9.38671875 11.8971875 -9.78125 12.8125 C-11.44030907 15.79029834 -13.68879151 17.36753237 -16.34375 19.4375 C-18.16606634 21.15666636 -18.93113431 22.75720917 -20 25 C-26.76425407 30.37161352 -36.68552741 29.15567218 -44.875 29.125 C-45.89980469 29.12886719 -46.92460938 29.13273437 -47.98046875 29.13671875 C-52.87390029 29.13050092 -57.7509399 29.02876858 -62.6328125 28.6796875 C-63.4283252 28.62280762 -64.22383789 28.56592773 -65.04345703 28.50732422 C-67 28 -67 28 -69 25 C-68.38125 24.7525 -67.7625 24.505 -67.125 24.25 C-64.64931313 22.79371361 -64.04874998 21.62187494 -63 19 C-62.34 19 -61.68 19 -61 19 C-60.34 17.35 -59.68 15.7 -59 14 C-58.01 14.66 -57.02 15.32 -56 16 C-58.97 18.97 -61.94 21.94 -65 25 C-58.29536453 25.86555745 -51.7566212 26.15299705 -45 26.125 C-44.06671875 26.12886719 -43.1334375 26.13273437 -42.171875 26.13671875 C-40.78742188 26.13478516 -40.78742188 26.13478516 -39.375 26.1328125 C-38.55773437 26.13168457 -37.74046875 26.13055664 -36.8984375 26.12939453 C-35.94195312 26.08669434 -34.98546875 26.04399414 -34 26 C-32.95272484 25.98227287 -32.95272484 25.98227287 -31.8842926 25.96418762 C-25.69911882 25.63253366 -22.79816865 23.92151439 -18.65234375 19.43359375 C-18.11017715 18.88010757 -17.56801056 18.3266214 -17.00941467 17.75636292 C-15.29890621 16.00142446 -13.61848057 14.22069421 -11.9375 12.4375 C-10.77597441 11.23580451 -9.61257841 10.03591394 -8.44726562 8.83789062 C-5.6094591 5.91235014 -2.798279 2.96335048 0 0 Z " fill="#4E0B24" transform="translate(137,221)"/>
<path d="M0 0 C1.9375 0.3125 1.9375 0.3125 4 1 C4.33 1.99 4.66 2.98 5 4 C5.66 4.33 6.32 4.66 7 5 C6.34 5 5.68 5 5 5 C4.97532241 10.37515933 4.95715072 15.75028585 4.94506836 21.12548828 C4.94003263 22.95492121 4.93320373 24.78435009 4.92456055 26.61376953 C4.91246176 29.23991898 4.90676417 31.86601532 4.90234375 34.4921875 C4.89718246 35.31306854 4.89202118 36.13394958 4.88670349 36.97970581 C4.77648126 41.12211844 4.77648126 41.12211844 6 45 C5.01 45 4.02 45 3 45 C2.7525 45.61875 2.505 46.2375 2.25 46.875 C0.73970696 49.44249816 -0.36091208 49.71815729 -3 51 C-5.80480564 53.52432507 -7.91638985 55.86784202 -9.9375 59.0625 C-13.07321195 63.52851398 -17.20151429 65.6421234 -22 68 C-17.35382024 62.40531783 -12.37171774 57.28332528 -7.1875 52.1875 C-5.65787536 50.68330553 -4.13041545 49.17690551 -2.60546875 47.66796875 C-1.60229614 46.68219849 -1.60229614 46.68219849 -0.57885742 45.67651367 C2.87803251 42.00580652 2.22421575 37.82420542 2.31640625 33.0546875 C2.33718735 32.1696756 2.35796844 31.2846637 2.37937927 30.37283325 C2.44486598 27.54030259 2.50375562 24.70767775 2.5625 21.875 C2.60568606 19.95702143 2.64930037 18.03905246 2.69335938 16.12109375 C2.80054647 11.41415949 2.9018164 6.70713033 3 2 C2.45730469 2.48210937 1.91460937 2.96421875 1.35546875 3.4609375 C0.64003906 4.09257812 -0.07539063 4.72421875 -0.8125 5.375 C-1.52019531 6.00148437 -2.22789062 6.62796875 -2.95703125 7.2734375 C-5 9 -5 9 -8 11 C-6.63629701 8.00779732 -5.05091917 5.70973471 -2.875 3.25 C-2.33617187 2.63640625 -1.79734375 2.0228125 -1.2421875 1.390625 C-0.83226562 0.93171875 -0.42234375 0.4728125 0 0 Z " fill="#4B0E25" transform="translate(160,153)"/>
<path d="M0 0 C1.32 0.33 2.64 0.66 4 1 C4 1.99 4 2.98 4 4 C3.01 4.495 3.01 4.495 2 5 C1.67 48.23 1.34 91.46 1 136 C0.67 136 0.34 136 0 136 C0 91.12 0 46.24 0 0 Z " fill="#4A1428" transform="translate(3,0)"/>
<path d="M0 0 C2.6015625 0.2421875 2.6015625 0.2421875 5.625 0.875 C6.62789062 1.07867188 7.63078125 1.28234375 8.6640625 1.4921875 C9.43492187 1.65976562 10.20578125 1.82734375 11 2 C11.12375 3.3921875 11.12375 3.3921875 11.25 4.8125 C11.70257552 8.08509879 11.70257552 8.08509879 14.0625 9.875 C14.701875 10.24625 15.34125 10.6175 16 11 C15.67 11.99 15.34 12.98 15 14 C14.34 14 13.68 14 13 14 C13 13.01 13 12.02 13 11 C11.68 10.67 10.36 10.34 9 10 C8.67 8.35 8.34 6.7 8 5 C7.21625 4.855625 6.4325 4.71125 5.625 4.5625 C3 4 3 4 1 3 C0.67 3.66 0.34 4.32 0 5 C-2.31 4.67 -4.62 4.34 -7 4 C-6.67 5.98 -6.34 7.96 -6 10 C-7.32 10.33 -8.64 10.66 -10 11 C-9.649375 11.556875 -9.29875 12.11375 -8.9375 12.6875 C-7.78154007 15.53886783 -8.19032562 17.08517222 -9 20 C-7.35 20.33 -5.7 20.66 -4 21 C-3.67 22.65 -3.34 24.3 -3 26 C-5 26 -5 26 -7.625 23.5 C-8.40875 22.675 -9.1925 21.85 -10 21 C-10.33 21.66 -10.66 22.32 -11 23 C-11.66 23 -12.32 23 -13 23 C-12.49396008 20.83125748 -12.00016187 19.00032373 -11 17 C-11.66 16.67 -12.32 16.34 -13 16 C-12.34 16 -11.68 16 -11 16 C-11.66 14.35 -12.32 12.7 -13 11 C-12.360625 10.443125 -11.72125 9.88625 -11.0625 9.3125 C-8.80319013 6.77933439 -8.36850953 5.31658576 -8 2 C-7.05125 2.04125 -6.1025 2.0825 -5.125 2.125 C-1.89755144 2.34973818 -1.89755144 2.34973818 0 0 Z " fill="#470A21" transform="translate(222,22)"/>
<path d="M0 0 C0.33 0 0.66 0 1 0 C1.02505615 1.25659424 1.0501123 2.51318848 1.07592773 3.80786133 C1.17002295 8.46519357 1.27023859 13.12237741 1.37231445 17.77954102 C1.41565529 19.79610729 1.45733098 21.81271007 1.49731445 23.8293457 C1.55503747 26.72618617 1.61872622 29.62284306 1.68359375 32.51953125 C1.70030624 33.42274612 1.71701874 34.325961 1.73423767 35.25654602 C1.75418289 36.09719101 1.77412811 36.937836 1.79467773 37.80395508 C1.81022202 38.54341873 1.8257663 39.28288239 1.84178162 40.04475403 C1.93912225 42.2151671 1.93912225 42.2151671 3 45 C3.0853013 47.87694671 3.11585645 50.72900182 3.09765625 53.60546875 C3.0962413 54.44467361 3.09482635 55.28387848 3.09336853 56.14851379 C3.08777215 58.82821216 3.07522035 61.5078269 3.0625 64.1875 C3.05748453 66.00455608 3.05292171 67.82161348 3.04882812 69.63867188 C3.03780391 74.09248013 3.02054178 78.54622589 3 83 C0.49895536 80.49895536 0.70843461 79.60553787 0.58813477 76.14111328 C0.54969955 75.12467743 0.51126434 74.10824158 0.47166443 73.06100464 C0.44105423 71.95032623 0.41044403 70.83964783 0.37890625 69.6953125 C0.34116592 68.53943634 0.3034256 67.38356018 0.26454163 66.19265747 C-0.13334063 52.75476857 -0.10995807 39.31727399 -0.0625 25.875 C-0.05746479 23.34375091 -0.05290553 20.81250082 -0.04882812 18.28125 C-0.03800596 12.18747767 -0.0214346 6.09374379 0 0 Z " fill="#5C0319" transform="translate(251,167)"/>
<path d="M0 0 C0 3 0 3 -2 6 C-2.66 6 -3.32 6 -4 6 C-3.99476318 6.69037354 -3.98952637 7.38074707 -3.98413086 8.09204102 C-3.96322133 11.24885126 -3.95029558 14.40564686 -3.9375 17.5625 C-3.92912109 18.64853516 -3.92074219 19.73457031 -3.91210938 20.85351562 C-3.89882088 25.22543049 -3.91540922 29.40848201 -4.53515625 33.7421875 C-5.11157173 37.78193969 -4.82582174 41.51143513 -4.5 45.5625 C-3.94856982 53.49619139 -4.17208847 61.0775235 -5 69 C-5.66 69 -6.32 69 -7 69 C-7.06971429 61.55869747 -7.12291946 54.11746614 -7.15543652 46.67590237 C-7.17104837 43.21993354 -7.19220356 39.76418925 -7.22631836 36.30834961 C-7.26534939 32.32929228 -7.27974632 28.35032378 -7.29296875 24.37109375 C-7.30845261 23.13854355 -7.32393646 21.90599335 -7.33988953 20.63609314 C-7.34138112 12.9956966 -7.09548849 7.4492586 -1.8125 1.5625 C-1.214375 1.046875 -0.61625 0.53125 0 0 Z " fill="#4E0A23" transform="translate(9,187)"/>
<path d="M0 0 C2.625 -0.1875 2.625 -0.1875 5 0 C4.34 0.33 3.68 0.66 3 1 C3 1.66 3 2.32 3 3 C2.34 3 1.68 3 1 3 C0.73716217 3.58815491 0.47432434 4.17630981 0.20352173 4.7822876 C-1.05813504 7.10712462 -2.3835506 8.62489754 -4.25634766 10.48339844 C-5.24714828 11.47397247 -5.24714828 11.47397247 -6.25796509 12.48455811 C-6.96947723 13.18574768 -7.68098938 13.88693726 -8.4140625 14.609375 C-9.14370209 15.33618469 -9.87334167 16.06299438 -10.62509155 16.81182861 C-12.9537388 19.12929198 -15.28924826 21.4396995 -17.625 23.75 C-19.20618653 25.32115444 -20.78692125 26.89276371 -22.3671875 28.46484375 C-26.2395669 32.31518653 -30.11760171 36.15976117 -34 40 C-34.66 39.34 -35.32 38.68 -36 38 C-35.21625 37.4225 -34.4325 36.845 -33.625 36.25 C-30.96505716 34.28216426 -30.96505716 34.28216426 -30.0625 32 C-28.47592705 29.01350975 -25.77749947 27.85166631 -23 26 C-21.86649466 23.98330173 -21.86649466 23.98330173 -21 22 C-19.67151309 20.99357052 -18.33849671 19.99307821 -17 19 C-16.67 18.01 -16.34 17.02 -16 16 C-15.34 16 -14.68 16 -14 16 C-13.67 15.34 -13.34 14.68 -13 14 C-11.625 12.375 -11.625 12.375 -10 11 C-9.01 11 -8.02 11 -7 11 C-6.67 10.01 -6.34 9.02 -6 8 C-5.34 8 -4.68 8 -4 8 C-3.71125 7.236875 -3.4225 6.47375 -3.125 5.6875 C-2 3 -2 3 0 0 Z " fill="#4A0724" transform="translate(131,181)"/>
<path d="M0 0 C0.495 1.485 0.495 1.485 1 3 C0 4 -1 5 -2 6 C-2.7425 6.763125 -3.485 7.52625 -4.25 8.3125 C-6.91413477 10.91608625 -9.67432758 13.30123946 -12.546875 15.66796875 C-14.12779183 16.9579691 -14.12779183 16.9579691 -15 19 C-15.66 19 -16.32 19 -17 19 C-17 19.66 -17 20.32 -17 21 C-18.64488294 22.68816933 -20.31337542 24.35353315 -22 26 C-22.66 26.99 -23.32 27.98 -24 29 C-25.1446875 29.680625 -25.1446875 29.680625 -26.3125 30.375 C-29.36113115 32.21835837 -31.5600205 34.4205931 -34 37 C-34.66 36.67 -35.32 36.34 -36 36 C-24 24 -12 12 0 0 Z " fill="#520B26" transform="translate(63,133)"/>
<path d="M0 0 C0.33 0.99 0.66 1.98 1 3 C-0.3125 5 -0.3125 5 -2 7 C-2.99 8.485 -2.99 8.485 -4 10 C-5.32 10 -6.64 10 -8 10 C-8.33 11.65 -8.66 13.3 -9 15 C-9.66 15 -10.32 15 -11 15 C-11 15.66 -11 16.32 -11 17 C-11.804375 17.474375 -12.60875 17.94875 -13.4375 18.4375 C-16.2918076 19.79983672 -16.2918076 19.79983672 -17 23 C-17.99 23.66 -18.98 24.32 -20 25 C-20.99 24.67 -21.98 24.34 -23 24 C-22.67 23.34 -22.34 22.68 -22 22 C-21.34 22 -20.68 22 -20 22 C-20 21.34 -20 20.68 -20 20 C-19.34 20 -18.68 20 -18 20 C-17.75894531 19.43152344 -17.51789063 18.86304688 -17.26953125 18.27734375 C-15.75031912 15.55211092 -13.92581019 13.73309661 -11.6875 11.5625 C-10.88570312 10.77875 -10.08390625 9.995 -9.2578125 9.1875 C-8.51273438 8.465625 -7.76765625 7.74375 -7 7 C-6.01848803 6.02318426 -5.03873943 5.04458518 -4.0625 4.0625 C-2.70833333 2.70833333 -1.35416667 1.35416667 0 0 Z " fill="#4E091F" transform="translate(135,141)"/>
<path d="M0 0 C0.99 0.33 1.98 0.66 3 1 C-5.91 9.91 -14.82 18.82 -24 28 C-24.66 27.67 -25.32 27.34 -26 27 C-26 22.71 -26 18.42 -26 14 C-25.67 14 -25.34 14 -25 14 C-25 17.3 -25 20.6 -25 24 C-23.68 23.67 -22.36 23.34 -21 23 C-21 22.34 -21 21.68 -21 21 C-18.625 18.375 -18.625 18.375 -16 16 C-15.34 16 -14.68 16 -14 16 C-13.67 15.01 -13.34 14.02 -13 13 C-11.34997172 11.64613064 -9.6825613 10.31321858 -8 9 C-7.34 8.01 -6.68 7.02 -6 6 C-5.34 6 -4.68 6 -4 6 C-3.566875 5.071875 -3.566875 5.071875 -3.125 4.125 C-2 2 -2 2 0 0 Z " fill="#440A1E" transform="translate(29,122)"/>
<path d="M0 0 C0.66 0.33 1.32 0.66 2 1 C-0.99571324 4.02510958 -3.99734805 7.04427875 -7 10.0625 C-7.83917969 10.91005859 -8.67835937 11.75761719 -9.54296875 12.63085938 C-16.04735176 19.16045317 -22.73403705 25.32346644 -30 31 C-30 30.01 -30 29.02 -30 28 C-29.34 28 -28.68 28 -28 28 C-27.79246094 27.45472656 -27.58492187 26.90945312 -27.37109375 26.34765625 C-25.48420748 23.11683389 -22.83914117 20.88398169 -20.0625 18.4375 C-16.05649539 14.90136349 -16.05649539 14.90136349 -12.24609375 11.16015625 C-11 10 -11 10 -9 10 C-8.61714844 9.11054687 -8.61714844 9.11054687 -8.2265625 8.203125 C-6.88183502 5.78775462 -5.50785633 4.48788294 -3.375 2.75 C-2.74335937 2.22921875 -2.11171875 1.7084375 -1.4609375 1.171875 C-0.73777344 0.59179688 -0.73777344 0.59179688 0 0 Z " fill="#480A22" transform="translate(70,83)"/>
<path d="M0 0 C3 1 3 1 5 4 C5.21289062 6.65112305 5.21289062 6.65112305 5.15625 9.82421875 C5.13820312 10.9848584 5.12015625 12.14549805 5.1015625 13.34130859 C4.93984219 19.1671272 4.74552452 24.98958737 4.5 30.8125 C4.45230469 31.99392578 4.40460938 33.17535156 4.35546875 34.39257812 C4.23930502 37.2618223 4.12078869 40.13094746 4 43 C3.67 43 3.34 43 3 43 C2.97494385 41.99622314 2.9498877 40.99244629 2.92407227 39.95825195 C2.82964704 36.2214764 2.72951314 32.48487157 2.62768555 28.74829102 C2.58446917 27.13342289 2.54278511 25.51851298 2.50268555 23.90356445 C2.44465952 21.57750883 2.38105971 19.25166096 2.31640625 16.92578125 C2.29969376 16.20787918 2.28298126 15.48997711 2.26576233 14.75032043 C2.15763988 11.06228324 1.86035952 7.5914652 1 4 C-0.65 5.32 -2.3 6.64 -4 8 C-4.33 7.34 -4.66 6.68 -5 6 C-3.35 4.02 -1.7 2.04 0 0 Z " fill="#530924" transform="translate(160,71)"/>
<path d="M0 0 C0.33 0.66 0.66 1.32 1 2 C-0.09655288 3.31886772 -1.20253423 4.62990057 -2.3125 5.9375 C-2.92738281 6.66839844 -3.54226562 7.39929688 -4.17578125 8.15234375 C-6 10 -6 10 -9 11 C-9.28875 11.5775 -9.5775 12.155 -9.875 12.75 C-11.39724365 15.79448729 -13.54100872 17.65278105 -16 20 C-17.10676776 21.10155944 -18.21094056 22.20573224 -19.3125 23.3125 C-20.199375 24.199375 -21.08625 25.08625 -22 26 C-22.99 25.67 -23.98 25.34 -25 25 C-16.75 16.75 -8.5 8.5 0 0 Z " fill="#510B24" transform="translate(74,203)"/>
<path d="M0 0 C0.33 0 0.66 0 1 0 C1.12405604 5.71077644 1.21455415 11.42076014 1.2746582 17.13256836 C1.299726 19.07346265 1.33378955 21.01426324 1.37719727 22.95483398 C1.43819154 25.75267711 1.46628687 28.54926711 1.48828125 31.34765625 C1.51408768 32.2083522 1.5398941 33.06904816 1.56648254 33.95582581 C1.56891895 39.24805824 0.65413118 42.46129481 -2.53279114 46.71043396 C-4.29456979 48.25890465 -5.71295183 48.60627447 -8 49 C-7.36771484 48.07767578 -7.36771484 48.07767578 -6.72265625 47.13671875 C-6.17480469 46.32847656 -5.62695312 45.52023438 -5.0625 44.6875 C-4.51722656 43.88699219 -3.97195312 43.08648437 -3.41015625 42.26171875 C-0.66889481 37.86506951 -0.78925402 33.63216013 -0.68359375 28.61328125 C-0.66281265 27.79627243 -0.64203156 26.97926361 -0.62062073 26.13749695 C-0.55526921 23.52924966 -0.49630727 20.92090225 -0.4375 18.3125 C-0.39430108 16.54360946 -0.35068635 14.77472903 -0.30664062 13.00585938 C-0.19960257 8.67067537 -0.09829456 4.33539071 0 0 Z " fill="#4D1027" transform="translate(72,84)"/>
<path d="M0 0 C0.66 0.33 1.32 0.66 2 1 C-6.66666667 9.66666667 -15.33333333 18.33333333 -24 27 C-23.49259538 22.60249328 -20.91706686 20.13051078 -18 17 C-17.34 17 -16.68 17 -16 17 C-15.773125 16.4225 -15.54625 15.845 -15.3125 15.25 C-13.66216522 12.42085466 -11.56741423 11.01725404 -9 9 C-8.278125 8.0925 -7.55625 7.185 -6.8125 6.25 C-5.9153125 5.13625 -5.9153125 5.13625 -5 4 C-4.34 4 -3.68 4 -3 4 C-3 3.34 -3 2.68 -3 2 C-2.01 1.34 -1.02 0.68 0 0 Z " fill="#470920" transform="translate(38,196)"/>
<path d="M0 0 C0.33 0.99 0.66 1.98 1 3 C0.34 3 -0.32 3 -1 3 C-0.649375 3.556875 -0.29875 4.11375 0.0625 4.6875 C1.21845993 7.53886783 0.80967438 9.08517222 0 12 C1.65 12.33 3.3 12.66 5 13 C5.33 14.65 5.66 16.3 6 18 C4 18 4 18 1.375 15.5 C0.59125 14.675 -0.1925 13.85 -1 13 C-1.33 13.66 -1.66 14.32 -2 15 C-2.66 15 -3.32 15 -4 15 C-3.49396008 12.83125748 -3.00016187 11.00032373 -2 9 C-2.66 8.67 -3.32 8.34 -4 8 C-3.34 8 -2.68 8 -2 8 C-2.66 6.35 -3.32 4.7 -4 3 C-2.68 2.01 -1.36 1.02 0 0 Z " fill="#590624" transform="translate(213,30)"/>
<path d="M0 0 C2.52282655 2.52282655 5 5.30389793 5 9 C2.36 9.33 -0.28 9.66 -3 10 C-3 10.99 -3 11.98 -3 13 C-6.3 12.67 -9.6 12.34 -13 12 C-12.34 11.34 -11.68 10.68 -11 10 C-7.875 10.375 -7.875 10.375 -5 11 C-4.67 9.68 -4.34 8.36 -4 7 C-2.68 6.67 -1.36 6.34 0 6 C-0.2784375 4.7934375 -0.2784375 4.7934375 -0.5625 3.5625 C-0.706875 2.716875 -0.85125 1.87125 -1 1 C-0.67 0.67 -0.34 0.34 0 0 Z " fill="#4D0B24" transform="translate(233,36)"/>
<path d="M0 0 C2.625 -0.1875 2.625 -0.1875 5 0 C4.01 0.495 4.01 0.495 3 1 C3 1.66 3 2.32 3 3 C2.34 3 1.68 3 1 3 C0.66355469 3.82757813 0.66355469 3.82757813 0.3203125 4.671875 C-1.40385183 7.71211744 -3.62515822 9.81425673 -6.125 12.25 C-7.03507812 13.14203125 -7.94515625 14.0340625 -8.8828125 14.953125 C-9.58148438 15.62859375 -10.28015625 16.3040625 -11 17 C-11.33 16.01 -11.66 15.02 -12 14 C-11.34 13.01 -10.68 12.02 -10 11 C-9.01 11 -8.02 11 -7 11 C-6.67 10.01 -6.34 9.02 -6 8 C-5.34 8 -4.68 8 -4 8 C-3.71125 7.236875 -3.4225 6.47375 -3.125 5.6875 C-2 3 -2 3 0 0 Z " fill="#320516" transform="translate(131,181)"/>
<path d="M0 0 C0.33 0 0.66 0 1 0 C1.02505615 0.68626465 1.0501123 1.3725293 1.07592773 2.07958984 C1.19171427 5.17825817 1.31451885 8.27660923 1.4375 11.375 C1.47681641 12.45523438 1.51613281 13.53546875 1.55664062 14.6484375 C1.59853516 15.6796875 1.64042969 16.7109375 1.68359375 17.7734375 C1.72025146 18.72653809 1.75690918 19.67963867 1.79467773 20.66162109 C1.85763465 23.02132349 1.85763465 23.02132349 3 25 C3.039992 26.99960012 3.04346799 29.00047242 3 31 C2.01 31 1.02 31 0 31 C0 20.77 0 10.54 0 0 Z " fill="#5F0721" transform="translate(251,225)"/>
<path d="M0 0 C0.99 0.33 1.98 0.66 3 1 C-1.29 5.29 -5.58 9.58 -10 14 C-10.33 13.01 -10.66 12.02 -11 11 C-8.38832034 7.41826789 -5.80175093 4.35970747 -2 2 C-1.34 2 -0.68 2 0 2 C0 1.34 0 0.68 0 0 Z " fill="#4C0525" transform="translate(51,182)"/>
<path d="M0 0 C0.66 0.33 1.32 0.66 2 1 C0.78258021 2.46815389 -0.44948761 3.92416847 -1.6875 5.375 C-2.37199219 6.18710938 -3.05648437 6.99921875 -3.76171875 7.8359375 C-6.09861313 10.09534323 -7.9302743 11.02155853 -11 12 C-7.49102731 7.81576108 -3.91939465 3.80411834 0 0 Z " fill="#520B24" transform="translate(86,191)"/>
<path d="M0 0 C0.66 0.33 1.32 0.66 2 1 C0.92807816 2.3218362 -0.15802695 3.63217927 -1.25 4.9375 C-1.85328125 5.66839844 -2.4565625 6.39929688 -3.078125 7.15234375 C-5.10741134 9.10326334 -6.254407 9.61731779 -9 10 C-7.68 7.69 -6.36 5.38 -5 3 C-4.34 3 -3.68 3 -3 3 C-3 2.34 -3 1.68 -3 1 C-2.01 0.67 -1.02 0.34 0 0 Z " fill="#490922" transform="translate(144,170)"/>
<path d="M0 0 C0.99 0.33 1.98 0.66 3 1 C0.03 3.97 -2.94 6.94 -6 10 C-6.66 9.34 -7.32 8.68 -8 8 C-7.360625 7.566875 -6.72125 7.13375 -6.0625 6.6875 C-3.73253997 5.08760823 -3.73253997 5.08760823 -3 2 C-2.01 1.34 -1.02 0.68 0 0 Z " fill="#480C21" transform="translate(88,226)"/>
<path d="M0 0 C0.99 0.495 0.99 0.495 2 1 C1.67 2.65 1.34 4.3 1 6 C2.65 6.33 4.3 6.66 6 7 C6.33 8.65 6.66 10.3 7 12 C5 12 5 12 2.375 9.9375 C-0.52867608 6.34611117 -0.44117322 4.49996683 0 0 Z " fill="#4A0D25" transform="translate(212,36)"/>
<path d="M0 0 C0 4.71449589 -3.07505492 7.049362 -6.25 10.3125 C-6.8275 10.869375 -7.405 11.42625 -8 12 C-8.99 11.67 -9.98 11.34 -11 11 C-7.37 7.37 -3.74 3.74 0 0 Z " fill="#510923" transform="translate(109,168)"/>
<path d="M0 0 C0.33 0.99 0.66 1.98 1 3 C-0.3125 5 -0.3125 5 -2 7 C-2.99 8.485 -2.99 8.485 -4 10 C-4.66 9.34 -5.32 8.68 -6 8 C-2.25 2.25 -2.25 2.25 0 0 Z " fill="#520926" transform="translate(135,141)"/>
<path d="M0 0 C3.465 1.98 3.465 1.98 7 4 C6.67 5.32 6.34 6.64 6 8 C5.34 8 4.68 8 4 8 C4 7.01 4 6.02 4 5 C2.68 4.67 1.36 4.34 0 4 C0 2.68 0 1.36 0 0 Z " fill="#43061E" transform="translate(231,28)"/>
<path d="M0 0 C0.66 0.66 1.32 1.32 2 2 C1.7578125 5.0390625 1.7578125 5.0390625 1.125 8.625 C0.92132813 9.81351563 0.71765625 11.00203125 0.5078125 12.2265625 C0.34023437 13.14179688 0.17265625 14.05703125 0 15 C-0.33 15 -0.66 15 -1 15 C-1.02703381 13.06257659 -1.04641125 11.12504521 -1.0625 9.1875 C-1.07410156 8.10855469 -1.08570313 7.02960938 -1.09765625 5.91796875 C-1 3 -1 3 0 0 Z " fill="#5A0826" transform="translate(5,193)"/>
<path d="M0 0 C0.66 0.33 1.32 0.66 2 1 C1.34 2.32 0.68 3.64 0 5 C-0.66 5 -1.32 5 -2 5 C-2.33 5.99 -2.66 6.98 -3 8 C-3.99 7.67 -4.98 7.34 -6 7 C-4.02 4.69 -2.04 2.38 0 0 Z " fill="#480411" transform="translate(129,146)"/>
<path d="M0 0 C0.99 0.33 1.98 0.66 3 1 C0.69 3.31 -1.62 5.62 -4 8 C-4 5 -4 5 -2 2 C-1.34 2 -0.68 2 0 2 C0 1.34 0 0.68 0 0 Z " fill="#490820" transform="translate(37,114)"/>
<path d="M0 0 C0.99 0.33 1.98 0.66 3 1 C-0.465 3.97 -0.465 3.97 -4 7 C-3.67 5.68 -3.34 4.36 -3 3 C-2.01 2.67 -1.02 2.34 0 2 C0 1.34 0 0.68 0 0 Z " fill="#3E0313" transform="translate(51,182)"/>
<path d="M0 0 C1.65 0 3.3 0 5 0 C4.01 0.495 4.01 0.495 3 1 C3 1.66 3 2.32 3 3 C2.34 3 1.68 3 1 3 C1 3.66 1 4.32 1 5 C0.01 5 -0.98 5 -2 5 C-1.34 3.35 -0.68 1.7 0 0 Z " fill="#43071E" transform="translate(131,181)"/>
<path d="M0 0 C0.99 0.33 1.98 0.66 3 1 C0.03 3.475 0.03 3.475 -3 6 C-3.33 5.34 -3.66 4.68 -4 4 C-2.68 2.68 -1.36 1.36 0 0 Z " fill="#2B0010" transform="translate(61,212)"/>
<path d="M0 0 C0.66 0.33 1.32 0.66 2 1 C0.68 1.99 -0.64 2.98 -2 4 C-1.34 2.68 -0.68 1.36 0 0 Z " fill="#420000" transform="translate(66,208)"/>
<path d="M0 0 C0.66 0.33 1.32 0.66 2 1 C0.68 1.99 -0.64 2.98 -2 4 C-1.34 2.68 -0.68 1.36 0 0 Z " fill="#1B0009" transform="translate(78,196)"/>
<path d="M0 0 C0.66 0.33 1.32 0.66 2 1 C1.01 1 0.02 1 -1 1 C-0.67 0.67 -0.34 0.34 0 0 Z " fill="#4A0000" transform="translate(70,204)"/>
<path d="M0 0 C0.66 0.33 1.32 0.66 2 1 C1.01 1 0.02 1 -1 1 C-0.67 0.67 -0.34 0.34 0 0 Z " fill="#2A0000" transform="translate(74,200)"/>
<path d="M0 0 C0.99 0.495 0.99 0.495 2 1 C1.01 1.495 1.01 1.495 0 2 C0 1.34 0 0.68 0 0 Z " fill="#000000" transform="translate(94,180)"/>
<path d="M0 0 C2 1 2 1 2 1 Z " fill="#000000" transform="translate(32,242)"/>
<path d="" fill="#000000" transform="translate(0,0)"/>
<path d="" fill="#000000" transform="translate(0,0)"/>
<path d="M0 0 C2 1 2 1 2 1 Z " fill="#000000" transform="translate(81,193)"/>
<path d="" fill="#000000" transform="translate(0,0)"/>
<path d="M0 0 C2 1 2 1 2 1 Z " fill="#3F0000" transform="translate(86,188)"/>
<path d="M0 0 C2 1 2 1 2 1 Z " fill="#000000" transform="translate(100,174)"/>
<path d="" fill="#000000" transform="translate(0,0)"/>
<path d="" fill="#555555" transform="translate(0,0)"/>
<path d="" fill="#000000" transform="translate(0,0)"/>
<path d="" fill="#000000" transform="translate(0,0)"/>
<path d="" fill="#000000" transform="translate(0,0)"/>
<path d="" fill="#000000" transform="translate(0,0)"/>
<path d="" fill="#000000" transform="translate(0,0)"/>
<path d="" fill="#000000" transform="translate(0,0)"/>
<path d="" fill="#000000" transform="translate(0,0)"/>
<path d="" fill="#000000" transform="translate(0,0)"/>
<path d="" fill="#000000" transform="translate(0,0)"/>
<path d="" fill="#FFFFFF" transform="translate(0,0)"/>
<path d="" fill="#000000" transform="translate(0,0)"/>
<path d="" fill="#FFFFFF" transform="translate(0,0)"/>
<path d="" fill="#550000" transform="translate(0,0)"/>
<path d="" fill="#7F0000" transform="translate(0,0)"/>
<path d="" fill="#000000" transform="translate(0,0)"/>
<path d="" fill="#000000" transform="translate(0,0)"/>
<path d="" fill="#000000" transform="translate(0,0)"/>
<path d="" fill="#000000" transform="translate(0,0)"/>
<path d="" fill="#000000" transform="translate(0,0)"/>
<path d="" fill="#FFFFFF" transform="translate(0,0)"/>
<path d="" fill="#000000" transform="translate(0,0)"/>
<path d="" fill="#FFFFFF" transform="translate(0,0)"/>
<path d="" fill="#000000" transform="translate(0,0)"/>
<path d="" fill="#000000" transform="translate(0,0)"/>
<path d="" fill="#000000" transform="translate(0,0)"/>
<path d="" fill="#000000" transform="translate(0,0)"/>
<path d="" fill="#000000" transform="translate(0,0)"/>
</svg>
